<svg width="35" height="19" viewBox="0 0 35 19" fill="#f50000" xmlns="http://www.w3.org/2000/svg">
<path d="M0.72 16.574V6.062C0.72 5.786 0.726 5.582 0.738 5.45C0.762 5.318 0.816 5.168 0.9 5C1.068 4.676 1.47 4.514 2.106 4.514C2.742 4.514 3.168 4.598 3.384 4.766C3.612 4.922 3.744 5.156 3.78 5.468C4.236 4.844 4.95 4.532 5.922 4.532C6.906 4.532 7.836 4.994 8.712 5.918C9.588 6.842 10.026 7.916 10.026 9.14C10.026 10.364 9.588 11.438 8.712 12.362C7.848 13.286 6.924 13.748 5.94 13.748C4.956 13.748 4.242 13.472 3.798 12.92V16.556C3.798 16.832 3.786 17.036 3.762 17.168C3.75 17.3 3.696 17.45 3.6 17.618C3.516 17.798 3.366 17.924 3.15 17.996C2.934 18.068 2.64 18.104 2.268 18.104C1.896 18.104 1.596 18.068 1.368 17.996C1.152 17.924 0.996 17.804 0.9 17.636C0.816 17.468 0.762 17.318 0.738 17.186C0.726 17.054 0.72 16.85 0.72 16.574ZM4.284 8.096C4.008 8.42 3.87 8.774 3.87 9.158C3.87 9.542 4.008 9.896 4.284 10.22C4.572 10.532 4.932 10.688 5.364 10.688C5.808 10.688 6.18 10.532 6.48 10.22C6.792 9.908 6.948 9.554 6.948 9.158C6.948 8.762 6.804 8.408 6.516 8.096C6.228 7.772 5.85 7.61 5.382 7.61C4.926 7.61 4.56 7.772 4.284 8.096ZM11.1966 6.098C11.1966 5.822 11.2026 5.618 11.2146 5.486C11.2386 5.342 11.2926 5.18 11.3766 5C11.5446 4.688 12.0126 4.532 12.7806 4.532C13.3566 4.532 13.7646 4.634 14.0046 4.838C14.2086 5.006 14.3166 5.264 14.3286 5.612C14.3406 5.732 14.3466 5.906 14.3466 6.134V12.434C14.3466 12.71 14.3346 12.92 14.3106 13.064C14.2986 13.196 14.2446 13.352 14.1486 13.532C13.9926 13.844 13.5306 14 12.7626 14C12.0066 14 11.5446 13.838 11.3766 13.514C11.2926 13.334 11.2386 13.178 11.2146 13.046C11.2026 12.914 11.1966 12.704 11.1966 12.416V6.098ZM14.1486 2.768C14.0646 2.936 13.9086 3.056 13.6806 3.128C13.4526 3.2 13.1466 3.236 12.7626 3.236C12.3906 3.236 12.0906 3.2 11.8626 3.128C11.6346 3.056 11.4726 2.93 11.3766 2.75C11.2926 2.57 11.2386 2.414 11.2146 2.282C11.2026 2.138 11.1966 1.928 11.1966 1.652C11.1966 1.376 11.2026 1.172 11.2146 1.04C11.2386 0.895999 11.2926 0.739999 11.3766 0.571999C11.5446 0.247999 12.0126 0.0859989 12.7806 0.0859989C13.5366 0.0859989 13.9926 0.247999 14.1486 0.571999C14.2446 0.752 14.2986 0.914 14.3106 1.058C14.3346 1.19 14.3466 1.394 14.3466 1.67C14.3466 1.946 14.3346 2.156 14.3106 2.3C14.2986 2.432 14.2446 2.588 14.1486 2.768ZM21.3645 9.248L23.7585 11.228C24.0585 11.48 24.2445 11.672 24.3165 11.804C24.4005 11.936 24.4425 12.062 24.4425 12.182C24.4425 12.47 24.2565 12.86 23.8845 13.352C23.4765 13.856 23.1165 14.108 22.8045 14.108C22.5405 14.108 22.1745 13.934 21.7065 13.586L21.5265 13.46C21.2505 13.232 20.8245 12.836 20.2485 12.272C19.6725 11.696 19.2345 11.288 18.9345 11.048V12.434C18.9345 12.71 18.9225 12.92 18.8985 13.064C18.8865 13.196 18.8325 13.352 18.7365 13.532C18.5805 13.844 18.1185 14 17.3505 14C16.5945 14 16.1325 13.838 15.9645 13.514C15.8805 13.334 15.8265 13.178 15.8025 13.046C15.7905 12.902 15.7845 12.692 15.7845 12.416V1.634C15.7845 1.358 15.7905 1.154 15.8025 1.022C15.8265 0.877999 15.8805 0.715999 15.9645 0.536C16.1325 0.211999 16.6005 0.0499994 17.3685 0.0499994C17.9445 0.0499994 18.3525 0.151999 18.5925 0.356C18.7965 0.524 18.9045 0.788 18.9165 1.148C18.9285 1.256 18.9345 1.424 18.9345 1.652V7.358C19.1505 7.178 19.4745 6.872 19.9065 6.44C20.3505 6.008 20.6805 5.702 20.8965 5.522L21.1125 5.378C21.5325 5.054 21.8925 4.892 22.1925 4.892C22.4925 4.892 22.8345 5.138 23.2185 5.63C23.6145 6.11 23.8125 6.488 23.8125 6.764C23.8125 7.04 23.5905 7.364 23.1465 7.736L21.3645 9.248ZM24.6199 9.266C24.6199 7.826 25.1239 6.638 26.1319 5.702C27.1399 4.766 28.2919 4.298 29.5879 4.298C30.8839 4.298 32.0299 4.766 33.0259 5.702C34.0219 6.626 34.5199 7.808 34.5199 9.248C34.5199 10.244 34.2619 11.132 33.7459 11.912C33.2299 12.68 32.5999 13.25 31.8559 13.622C31.1239 13.982 30.3619 14.162 29.5699 14.162C28.7779 14.162 28.0099 13.97 27.2659 13.586C26.5219 13.19 25.8919 12.614 25.3759 11.858C24.8719 11.09 24.6199 10.226 24.6199 9.266ZM28.3819 10.562C28.7659 10.85 29.1559 10.994 29.5519 10.994C29.9479 10.994 30.3439 10.844 30.7399 10.544C31.1359 10.244 31.3339 9.8 31.3339 9.212C31.3339 8.624 31.1479 8.186 30.7759 7.898C30.4039 7.61 30.0019 7.466 29.5699 7.466C29.1379 7.466 28.7359 7.616 28.3639 7.916C27.9919 8.216 27.8059 8.66 27.8059 9.248C27.8059 9.824 27.9979 10.262 28.3819 10.562Z" />
</svg>
