<svg width="36" height="15" viewBox="0 0 36 15" fill="#f50000" xmlns="http://www.w3.org/2000/svg">
    <path d="M10.458 3.47C10.77 4.106 10.926 4.814 10.926 5.594C10.926 6.374 10.77 7.082 10.458 7.718C10.146 8.342 9.744 8.84 9.252 9.212C8.256 9.98 7.224 10.364 6.156 10.364H3.906V12.398C3.906 12.674 3.894 12.884 3.87 13.028C3.858 13.16 3.804 13.316 3.708 13.496C3.54 13.82 3.072 13.982 2.304 13.982C1.464 13.982 0.972 13.76 0.828 13.316C0.756 13.112 0.72 12.8 0.72 12.38V2.39C0.72 2.114 0.726 1.91 0.738 1.778C0.762 1.634 0.822 1.472 0.918 1.292C1.086 0.967999 1.554 0.805999 2.322 0.805999H6.174C7.23 0.805999 8.256 1.19 9.252 1.958C9.744 2.33 10.146 2.834 10.458 3.47ZM6.174 7.178C6.534 7.178 6.888 7.046 7.236 6.782C7.584 6.518 7.758 6.122 7.758 5.594C7.758 5.066 7.584 4.67 7.236 4.406C6.888 4.13 6.528 3.992 6.156 3.992H3.906V7.178H6.174ZM11.7415 6.098C11.7415 5.822 11.7475 5.618 11.7595 5.486C11.7835 5.342 11.8375 5.18 11.9215 5C12.0895 4.688 12.5575 4.532 13.3255 4.532C13.9015 4.532 14.3095 4.634 14.5495 4.838C14.7535 5.006 14.8615 5.264 14.8735 5.612C14.8855 5.732 14.8915 5.906 14.8915 6.134V12.434C14.8915 12.71 14.8795 12.92 14.8555 13.064C14.8435 13.196 14.7895 13.352 14.6935 13.532C14.5375 13.844 14.0755 14 13.3075 14C12.5515 14 12.0895 13.838 11.9215 13.514C11.8375 13.334 11.7835 13.178 11.7595 13.046C11.7475 12.914 11.7415 12.704 11.7415 12.416V6.098ZM14.6935 2.768C14.6095 2.936 14.4535 3.056 14.2255 3.128C13.9975 3.2 13.6915 3.236 13.3075 3.236C12.9355 3.236 12.6355 3.2 12.4075 3.128C12.1795 3.056 12.0175 2.93 11.9215 2.75C11.8375 2.57 11.7835 2.414 11.7595 2.282C11.7475 2.138 11.7415 1.928 11.7415 1.652C11.7415 1.376 11.7475 1.172 11.7595 1.04C11.7835 0.895999 11.8375 0.739999 11.9215 0.571999C12.0895 0.247999 12.5575 0.0859989 13.3255 0.0859989C14.0815 0.0859989 14.5375 0.247999 14.6935 0.571999C14.7895 0.752 14.8435 0.914 14.8555 1.058C14.8795 1.19 14.8915 1.394 14.8915 1.67C14.8915 1.946 14.8795 2.156 14.8555 2.3C14.8435 2.432 14.7895 2.588 14.6935 2.768ZM21.9094 9.248L24.3034 11.228C24.6034 11.48 24.7894 11.672 24.8614 11.804C24.9454 11.936 24.9874 12.062 24.9874 12.182C24.9874 12.47 24.8014 12.86 24.4294 13.352C24.0214 13.856 23.6614 14.108 23.3494 14.108C23.0854 14.108 22.7194 13.934 22.2514 13.586L22.0714 13.46C21.7954 13.232 21.3694 12.836 20.7934 12.272C20.2174 11.696 19.7794 11.288 19.4794 11.048V12.434C19.4794 12.71 19.4674 12.92 19.4434 13.064C19.4314 13.196 19.3774 13.352 19.2814 13.532C19.1254 13.844 18.6634 14 17.8954 14C17.1394 14 16.6774 13.838 16.5094 13.514C16.4254 13.334 16.3714 13.178 16.3474 13.046C16.3354 12.902 16.3294 12.692 16.3294 12.416V1.634C16.3294 1.358 16.3354 1.154 16.3474 1.022C16.3714 0.877999 16.4254 0.715999 16.5094 0.536C16.6774 0.211999 17.1454 0.0499994 17.9134 0.0499994C18.4894 0.0499994 18.8974 0.151999 19.1374 0.356C19.3414 0.524 19.4494 0.788 19.4614 1.148C19.4734 1.256 19.4794 1.424 19.4794 1.652V7.358C19.6954 7.178 20.0194 6.872 20.4514 6.44C20.8954 6.008 21.2254 5.702 21.4414 5.522L21.6574 5.378C22.0774 5.054 22.4374 4.892 22.7374 4.892C23.0374 4.892 23.3794 5.138 23.7634 5.63C24.1594 6.11 24.3574 6.488 24.3574 6.764C24.3574 7.04 24.1354 7.364 23.6914 7.736L21.9094 9.248ZM25.1648 9.266C25.1648 7.826 25.6688 6.638 26.6768 5.702C27.6848 4.766 28.8368 4.298 30.1328 4.298C31.4288 4.298 32.5748 4.766 33.5708 5.702C34.5668 6.626 35.0648 7.808 35.0648 9.248C35.0648 10.244 34.8068 11.132 34.2908 11.912C33.7748 12.68 33.1448 13.25 32.4008 13.622C31.6688 13.982 30.9068 14.162 30.1148 14.162C29.3228 14.162 28.5548 13.97 27.8108 13.586C27.0668 13.19 26.4368 12.614 25.9208 11.858C25.4168 11.09 25.1648 10.226 25.1648 9.266ZM28.9268 10.562C29.3108 10.85 29.7008 10.994 30.0968 10.994C30.4928 10.994 30.8888 10.844 31.2848 10.544C31.6808 10.244 31.8788 9.8 31.8788 9.212C31.8788 8.624 31.6928 8.186 31.3208 7.898C30.9488 7.61 30.5468 7.466 30.1148 7.466C29.6828 7.466 29.2808 7.616 28.9088 7.916C28.5368 8.216 28.3508 8.66 28.3508 9.248C28.3508 9.824 28.5428 10.262 28.9268 10.562Z" />
</svg>
